<mxfile host="app.diagrams.net" modified="2023-05-21T22:43:02.171Z" agent="Mozilla/5.0 (Windows NT 10.0; Win64; x64) AppleWebKit/537.36 (KHTML, like Gecko) Chrome/113.0.0.0 Safari/537.36" etag="kR93jFhcqUMCRwjLw2Ir" version="21.3.2" type="github">
  <diagram name="Page-1" id="zTNdSBpbhWN0Q77Bi_dt">
    <mxGraphModel dx="1712" dy="479" grid="1" gridSize="10" guides="1" tooltips="1" connect="1" arrows="1" fold="1" page="1" pageScale="1" pageWidth="850" pageHeight="1100" math="0" shadow="0">
      <root>
        <mxCell id="0" />
        <mxCell id="1" parent="0" />
        <mxCell id="sGRFZpxIaXYoMaDRyyh--1" value="&lt;b&gt;DC = tak&lt;br&gt;DC = etsu&lt;br&gt;DC = edu&lt;/b&gt;" style="rounded=1;whiteSpace=wrap;html=1;fillColor=#a20025;fontColor=#ffffff;strokeColor=#6F0000;" vertex="1" parent="1">
          <mxGeometry x="240" y="40" width="120" height="60" as="geometry" />
        </mxCell>
        <mxCell id="sGRFZpxIaXYoMaDRyyh--2" value="&lt;b&gt;ROOT/Domain Components&lt;/b&gt;" style="rounded=1;whiteSpace=wrap;html=1;fillColor=#a20025;fontColor=#ffffff;strokeColor=#6F0000;" vertex="1" parent="1">
          <mxGeometry x="-160" y="40" width="120" height="60" as="geometry" />
        </mxCell>
        <mxCell id="sGRFZpxIaXYoMaDRyyh--3" value="&lt;b&gt;OU = domains&lt;/b&gt;" style="rounded=1;whiteSpace=wrap;html=1;fillColor=#f0a30a;fontColor=#000000;strokeColor=#BD7000;" vertex="1" parent="1">
          <mxGeometry x="240" y="350" width="120" height="60" as="geometry" />
        </mxCell>
        <mxCell id="sGRFZpxIaXYoMaDRyyh--4" value="&lt;b&gt;OU = admins&lt;/b&gt;" style="rounded=1;whiteSpace=wrap;html=1;fillColor=#1ba1e2;fontColor=#ffffff;strokeColor=#006EAF;" vertex="1" parent="1">
          <mxGeometry x="240" y="200" width="120" height="60" as="geometry" />
        </mxCell>
        <mxCell id="sGRFZpxIaXYoMaDRyyh--5" value="&lt;b&gt;Administration&lt;/b&gt;" style="rounded=1;whiteSpace=wrap;html=1;fillColor=#1ba1e2;fontColor=#ffffff;strokeColor=#006EAF;" vertex="1" parent="1">
          <mxGeometry x="-160" y="200" width="120" height="60" as="geometry" />
        </mxCell>
        <mxCell id="sGRFZpxIaXYoMaDRyyh--6" value="&lt;b&gt;Individual Roles&lt;/b&gt;" style="rounded=1;whiteSpace=wrap;html=1;fillColor=#f0a30a;fontColor=#000000;strokeColor=#BD7000;" vertex="1" parent="1">
          <mxGeometry x="-160" y="350" width="120" height="60" as="geometry" />
        </mxCell>
        <mxCell id="sGRFZpxIaXYoMaDRyyh--7" value="CN = it_admins" style="rounded=1;whiteSpace=wrap;html=1;fillColor=#147caf;fontColor=#ffffff;strokeColor=#006EAF;" vertex="1" parent="1">
          <mxGeometry x="425" y="160" width="120" height="60" as="geometry" />
        </mxCell>
        <mxCell id="sGRFZpxIaXYoMaDRyyh--8" value="CN = domain_admins" style="rounded=1;whiteSpace=wrap;html=1;fillColor=#147caf;fontColor=#ffffff;strokeColor=#006EAF;" vertex="1" parent="1">
          <mxGeometry x="425" y="240" width="120" height="60" as="geometry" />
        </mxCell>
      </root>
    </mxGraphModel>
  </diagram>
</mxfile>
